# xmcd CD database file
#
# Track frame offsets:
#	150
#	18462
#	32665
#
# Disc length: 695 seconds
#
# Revision: 0
# Processed by: cddbd v1.5.2PL0 Copyright (c) Steve Scherf et al.
# Submitted via: CDex 1.79
#
DISCID=1a02b503
DTITLE=Faith Hill - Piece of My Heart
DYEAR=1994
DGENRE=Country
TTITLE0=Piece of My Heart (Album Version)
TTITLE1=Just Around the Eyes (Album Version)
TTITLE2=A Man's Home is His Castle (Album Version)
EXTD=YEAR: 1994
EXTT0=
EXTT1=
EXTT2=
PLAYORDER=
